<?xml version="1.0" encoding="UTF-8" standalone="no"?>
<!-- Created with Inkscape (http://www.inkscape.org/) -->

<svg
   width="66.095451mm"
   height="61.700657mm"
   viewBox="0 0 66.095451 61.700657"
   version="1.1"
   id="svg5"
   xml:space="preserve"
   xmlns="http://www.w3.org/2000/svg"
   xmlns:svg="http://www.w3.org/2000/svg"><defs
     id="defs2"><clipPath
       clipPathUnits="userSpaceOnUse"
       id="clipPath1142"><rect
         style="fill:#000000;fill-opacity:0;stroke:#000000;stroke-width:0.640001"
         id="rect1144"
         width="26.063828"
         height="53.550854"
         x="66.121849"
         y="170.0614"
         ry="0" /></clipPath><clipPath
       clipPathUnits="userSpaceOnUse"
       id="clipPath1238"><rect
         style="fill:#000000;fill-opacity:0;stroke:#000000;stroke-width:0.640001"
         id="rect1240"
         width="5.3355665"
         height="10.344308"
         x="183.34773"
         y="86.708633" /></clipPath><clipPath
       clipPathUnits="userSpaceOnUse"
       id="clipPath1248"><rect
         style="fill:#000000;fill-opacity:0;stroke:#000000;stroke-width:0.640001"
         id="rect1250"
         width="29.186291"
         height="44.484177"
         x="139.37755"
         y="39.302143" /></clipPath></defs><g
     id="layer1"
     transform="translate(-79.678316,-135.14618)"><g
       id="g1297"
       transform="matrix(1.2929696,0,0,1.2188459,-85.858164,28.031498)"><path
         style="fill:#572412;stroke:none;stroke-width:0.264583"
         d="m 149.45903,90.53461 c 0.0325,1.93543 0.98505,2.90222 2.91042,2.91042 -0.36221,-1.75869 -1.15173,-2.5482 -2.91042,-2.91042 m 5.55625,2.91042 c 1.92326,-0.0405 2.56911,-1.14379 2.91042,-2.91042 -1.85129,0.20215 -2.87814,0.99642 -2.91042,2.91042 m -21.43125,38.1 h 13.75834 l -0.79375,-4.23333 h -9.78959 V 96.62003 l 11.90625,-0.007 3.43959,-0.78634 c -0.64612,-0.62045 -2.10291,-1.74942 -2.96916,-2.0357 -0.9062,-0.29951 -2.16932,-0.081 -3.11626,-0.081 h -6.87917 c -1.83303,0 -4.30027,-0.41619 -5.2623,1.5875 -0.48868,1.01812 -0.29395,2.34474 -0.29395,3.43959 v 7.14375 25.66458 m 2.11663,-36.24834 -0.26458,0.26459 0.26458,-0.26459 m 1.76398,0.17648 -0.0884,0.17621 0.0884,-0.17621 m -0.44106,0.35269 -0.26459,0.26458 0.26459,-0.26458 m 13.22916,8.46667 h 6.61459 c 0,-1.28059 0.33946,-3.11547 -0.39688,-4.23334 -1.34144,-2.03649 -4.89056,-1.98649 -6.02668,0.26459 -0.52678,1.04378 -0.19103,2.82046 -0.19103,3.96875 m -14.3756,-3.26311 -0.0884,0.17621 0.0884,-0.17621 m 0.0881,0.61727 -0.26459,0.26459 0.26459,-0.26459 m 14.2875,3.96875 v 0.52917 h 6.61458 v -0.52917 h -6.61458 m -0.26459,1.5875 v 0.52917 h 7.14375 v -0.52917 h -7.14375 m -21.96,26.4584 c 0.34263,2.81252 2.48073,2.64583 4.7625,2.64583 4.191,0 8.22822,0.0541 12.43541,0.007 1.25104,-0.004 1.97899,-0.0472 3.70417,-0.007 l -1.38906,-2.55773 -5.75469,-0.0881 h -13.75835 m 24.60625,2.38084 c 0,0 0.53433,2.1013 0.75909,2.35268 0.22475,0.25138 0.12463,-0.0181 0.12749,0.002 0.003,0.0204 -0.0803,0.23765 0.13864,-0.0122 0.21887,-0.24982 0.82687,-2.34267 0.82687,-2.34267 z"
         id="path1212" /><path
         style="fill:#572412;stroke:none;stroke-width:0.264583"
         d="m 149.45903,90.53461 c 0.0325,1.93543 0.98505,2.90222 2.91042,2.91042 -0.36221,-1.75869 -1.15173,-2.5482 -2.91042,-2.91042 m 5.55625,2.91042 c 1.92326,-0.0405 2.56911,-1.14379 2.91042,-2.91042 -1.85129,0.20215 -2.87814,0.99642 -2.91042,2.91042 m -21.43125,38.1 h 13.75834 l -0.79375,-4.23333 h -9.78959 V 96.62003 l 11.90625,-0.007 3.43959,-0.78634 c -0.64612,-0.62045 -2.10291,-1.74942 -2.96916,-2.0357 -0.9062,-0.29951 -2.16932,-0.081 -3.11626,-0.081 h -6.87917 c -1.83303,0 -4.30027,-0.41619 -5.2623,1.5875 -0.48868,1.01812 -0.29395,2.34474 -0.29395,3.43959 v 7.14375 25.66458 m 2.11663,-36.24834 -0.26458,0.26459 0.26458,-0.26459 m 1.76398,0.17648 -0.0884,0.17621 0.0884,-0.17621 m -0.44106,0.35269 -0.26459,0.26458 0.26459,-0.26458 m 13.22916,8.46667 h 6.61459 c 0,-1.28059 0.33946,-3.11547 -0.39688,-4.23334 -1.34144,-2.03649 -4.89056,-1.98649 -6.02668,0.26459 -0.52678,1.04378 -0.19103,2.82046 -0.19103,3.96875 m -14.3756,-3.26311 -0.0884,0.17621 0.0884,-0.17621 m 0.0881,0.61727 -0.26459,0.26459 0.26459,-0.26459 m 14.2875,3.96875 v 0.52917 h 6.61458 v -0.52917 h -6.61458 m -0.26459,1.5875 v 0.52917 h 7.14375 v -0.52917 h -7.14375 m -21.96,26.45838 c 0.34263,2.81252 2.48073,2.64583 4.7625,2.64583 4.191,0 8.22822,0.0541 12.43541,0.007 1.25104,-0.004 1.97899,-0.0472 3.70417,-0.007 l -1.38906,-2.55773 -5.75469,-0.0881 h -13.75835"
         id="path1214" /><path
         style="fill:#572412;stroke:none;stroke-width:0.264583"
         d="m 153.42774,96.09086 h 32.80833 l 0.022,-3.43958 0.0172,-2.679341 -0.0391,-2.083159 c -2.2434,0.867436 -0.96811,3.0943 -0.63209,4.7625 0.22357,1.1094 0.10292,2.31272 0.10292,3.43958 m -36.24791,-5.55625 c 0.0325,1.93543 0.98505,2.90222 2.91042,2.91042 -0.36221,-1.75869 -1.15173,-2.5482 -2.91042,-2.91042 m 5.55625,2.91042 c 1.92326,-0.0405 2.56911,-1.14379 2.91042,-2.91042 -1.85129,0.20215 -2.87814,0.99642 -2.91042,2.91042 m -21.43125,38.1 h 13.75834 l -0.79375,-4.23333 h -9.78959 V 96.62003 l 11.90625,-0.007 3.43959,-0.78634 c -0.64612,-0.62045 -2.10291,-1.74942 -2.96916,-2.0357 -0.9062,-0.29951 -2.16932,-0.081 -3.11626,-0.081 h -6.87917 c -1.83303,0 -4.30027,-0.41619 -5.2623,1.5875 -0.48868,1.01812 -0.29395,2.34474 -0.29395,3.43959 v 7.14375 25.66458 m 21.43125,-35.98333 v 0.26458 l 3.18241,0.78634 12.16343,0.007 v 30.69167 h -9.78959 l -0.52916,4.23333 9.78958,0.20585 3.51314,-0.33814 0.19103,-1.98438 v -5.55625 -21.16666 -5.55625 l -0.8599,-2.78554 -3.63802,-0.65405 h -7.40837 l -3.43959,0.0881 -3.175,1.76398 m -19.31458,-0.26459 -0.26458,0.26459 0.26458,-0.26459 m 1.76398,0.17648 -0.0884,0.17621 0.0884,-0.17621 m -0.44106,0.35269 -0.26459,0.26458 0.26459,-0.26458 m 13.22916,8.46667 h 6.61459 c 0,-1.28059 0.33946,-3.11547 -0.39688,-4.23334 -1.34144,-2.03649 -4.89056,-1.98649 -6.02668,0.26459 -0.52678,1.04378 -0.19103,2.82046 -0.19103,3.96875 m -14.3756,-3.26311 -0.0884,0.17621 0.0884,-0.17621 m 0.0881,0.61727 -0.26459,0.26459 0.26459,-0.26459 m 14.2875,3.96875 v 0.52917 h 6.61458 v -0.52917 h -6.61458 m -0.26459,1.5875 v 0.52917 h 7.14375 v -0.52917 h -7.14375 m 35.18959,-8.466667 v 14.816667 l -0.1397,5.82083 1.99178,5.82084 2.77813,-0.19103 0.74956,-1.66106 1.3671,-3.96875 -0.13229,-6.08541 V 98.736653 c -2.05449,0.14976 -1.32292,3.203307 -1.32292,4.762497 v 15.875 c -1.67904,-1.25386 -1.32291,-2.8395 -1.32291,-4.7625 v -10.84787 c 0,-1.30255 0.12382,-2.67335 -0.007,-3.968747 -0.0434,-0.42942 -0.17807,-1.05172 -0.76438,-0.94086 -0.51991,0.0984 -0.68263,0.77047 -0.75698,1.205437 -0.2106,1.23269 0.20585,2.6969 0.20585,3.96875 0,3.77825 0.21061,7.62979 -0.20585,11.37708 -0.19076,1.71715 0.62363,2.80062 -1.11707,3.96875 l -0.26458,-5.82083 v -10.05417 -4.762497 h -1.05833 m -57.15,34.925007 c 0.34263,2.81252 2.48073,2.64583 4.7625,2.64583 4.191,0 8.22822,0.0541 12.43541,0.007 1.25104,-0.004 1.97899,-0.0472 3.70417,-0.007 l -1.38906,-2.55773 -5.75469,-0.0881 h -13.75835 m 30.1625,2.64583 c 5.11493,0 10.21054,0.17383 15.34584,0.007 2.3913,-0.0775 5.15223,0.66199 5.55625,-2.65324 h -13.75834 l -5.75468,0.0881 -1.38907,2.55773 m 29.36875,-10.31875 0.79375,2.38125 h 0.26459 l 0.79375,-2.38125 z"
         id="path1218"
         clip-path="url(#clipPath1238)"
         transform="translate(-32.808348)" /><path
         style="fill:#572412;stroke:none;stroke-width:0.264583"
         d="m 153.42774,96.09086 h 32.80833 l 0.022,-3.43958 0.0172,-2.679341 -0.0391,-2.083159 c -2.2434,0.867436 -0.96811,3.0943 -0.63209,4.7625 0.22357,1.1094 0.10292,2.31272 0.10292,3.43958 m -36.24791,-5.55625 c 0.0325,1.93543 0.98505,2.90222 2.91042,2.91042 -0.36221,-1.75869 -1.15173,-2.5482 -2.91042,-2.91042 m 5.55625,2.91042 c 1.92326,-0.0405 2.56911,-1.14379 2.91042,-2.91042 -1.85129,0.20215 -2.87814,0.99642 -2.91042,2.91042 m -21.43125,38.1 h 13.75834 l -0.79375,-4.23333 h -9.78959 V 96.62003 l 11.90625,-0.007 3.43959,-0.78634 c -0.64612,-0.62045 -2.10291,-1.74942 -2.96916,-2.0357 -0.9062,-0.29951 -2.16932,-0.081 -3.11626,-0.081 h -6.87917 c -1.83303,0 -4.30027,-0.41619 -5.2623,1.5875 -0.48868,1.01812 -0.29395,2.34474 -0.29395,3.43959 v 7.14375 25.66458 m 21.43125,-35.98333 v 0.26458 l 3.18241,0.78634 12.16343,0.007 v 30.69167 h -9.78959 l -0.52916,4.23333 9.78958,0.20585 3.51314,-0.33814 0.19103,-1.98438 v -5.55625 -21.16666 -5.55625 l -0.8599,-2.78554 -3.63802,-0.65405 h -7.40837 l -3.43959,0.0881 -3.175,1.76398 m -19.31458,-0.26459 -0.26458,0.26459 0.26458,-0.26459 m 1.76398,0.17648 -0.0884,0.17621 0.0884,-0.17621 m -0.44106,0.35269 -0.26459,0.26458 0.26459,-0.26458 m 13.22916,8.46667 h 6.61459 c 0,-1.28059 0.33946,-3.11547 -0.39688,-4.23334 -1.34144,-2.03649 -4.89056,-1.98649 -6.02668,0.26459 -0.52678,1.04378 -0.19103,2.82046 -0.19103,3.96875 m -14.3756,-3.26311 -0.0884,0.17621 0.0884,-0.17621 m 0.0881,0.61727 -0.26459,0.26459 0.26459,-0.26459 m 14.2875,3.96875 v 0.52917 h 6.61458 v -0.52917 h -6.61458 m -0.26459,1.5875 v 0.52917 h 7.14375 v -0.52917 h -7.14375 m 35.18959,-8.466667 v 14.816667 l -0.1397,5.82083 1.99178,5.82084 2.77813,-0.19103 0.74956,-1.66106 1.3671,-3.96875 -0.13229,-6.08541 V 98.736653 c -2.05449,0.14976 -1.32292,3.203307 -1.32292,4.762497 v 15.875 c -1.67904,-1.25386 -1.32291,-2.8395 -1.32291,-4.7625 v -10.84787 c 0,-1.30255 0.12382,-2.67335 -0.007,-3.968747 -0.0434,-0.42942 -0.17807,-1.05172 -0.76438,-0.94086 -0.51991,0.0984 -0.68263,0.77047 -0.75698,1.205437 -0.2106,1.23269 0.20585,2.6969 0.20585,3.96875 0,3.77825 0.21061,7.62979 -0.20585,11.37708 -0.19076,1.71715 0.62363,2.80062 -1.11707,3.96875 l -0.26458,-5.82083 v -10.05417 -4.762497 h -1.05833 m -57.15,34.925007 c 0.34263,2.81252 2.48073,2.64583 4.7625,2.64583 4.191,0 8.22822,0.0541 12.43541,0.007 1.25104,-0.004 1.97899,-0.0472 3.70417,-0.007 l -1.38906,-2.55773 -5.75469,-0.0881 h -13.75835 m 30.1625,2.64583 c 5.11493,0 10.21054,0.17383 15.34584,0.007 2.3913,-0.0775 5.15223,0.66199 5.55625,-2.65324 h -13.75834 l -5.75468,0.0881 -1.38907,2.55773 m 29.36875,-10.31875 0.79375,2.38125 h 0.26459 l 0.79375,-2.38125 z"
         id="path1242"
         clip-path="url(#clipPath1238)"
         transform="matrix(-1,0,0,1,339.63831,-0.00672904)" /><path
         style="fill:#572412;stroke:none;stroke-width:0.264583"
         d="m 148.46421,77.770808 h 13.75834 l -0.79375,-4.233306 h -9.78959 V 42.845985 l 11.90625,-0.007 3.43959,-0.78634 c -0.64612,-0.62045 -2.10291,-1.74942 -2.96916,-2.0357 -0.9062,-0.29951 -2.16932,-0.081 -3.11626,-0.081 h -6.87917 c -1.83303,0 -4.30027,-0.41619 -5.2623,1.5875 -0.48868,1.01812 -0.29395,2.34474 -0.29395,3.43959 v 7.143717 25.664436 m 2.11663,-36.248163 -0.26458,0.26459 0.26458,-0.26459 m 1.76398,0.17648 -0.0884,0.17621 0.0884,-0.17621 m -0.44106,0.35269 -0.26459,0.26458 0.26459,-0.26458 m -1.14644,5.203557 -0.0884,0.176207 0.0884,-0.176207 m 0.0881,0.617264 -0.26459,0.26459 0.26459,-0.26459 m 49.2125,-2.910408 V 59.7792 l -0.1397,5.820797 1.99178,5.820807 2.77813,-0.19103 0.74956,-1.661051 1.3671,-3.968726 -0.13229,-6.085377 V 44.962608 c -2.05449,0.14976 -1.32292,3.203298 -1.32292,4.762479 v 15.87491 c -1.67904,-1.253854 -1.32291,-2.839485 -1.32291,-4.762473 v -10.84781 c 0,-1.302541 0.12382,-2.673335 -0.007,-3.968726 -0.0434,-0.42942 -0.17807,-1.05172 -0.76438,-0.94086 -0.51991,0.0984 -0.68263,0.77047 -0.75698,1.205437 -0.2106,1.232684 0.20585,2.696885 0.20585,3.968729 0,3.778229 0.21061,7.629745 -0.20585,11.377014 -0.19076,1.717141 0.62363,2.800605 -1.11707,3.968729 L 201.11666,59.77924 V 49.725127 44.962648 h -1.05833 m -57.15,34.924818 c 0.34263,2.812505 2.48073,2.645815 4.7625,2.645815 4.191,0 8.22822,0.0541 12.43541,0.007 1.25104,-0.004 1.97899,-0.0472 3.70417,-0.007 l -1.38906,-2.557715 -5.75469,-0.0881 h -13.75835 m 59.53125,-7.673288 0.79375,2.381238 h 0.26459 l 0.79375,-2.381238 z"
         id="path1244"
         clip-path="url(#clipPath1248)"
         transform="matrix(-1,0,0,1,322.05555,53.975028)" /><g
         id="g1287"
         transform="translate(61.632431,-84.034521)"><path
           style="fill:#572412;stroke:none;stroke-width:0.264583"
           d="m 108.68867,180.39814 v 30.69167 c -12.181791,-0.599 -13.525488,4.1659 -0.52917,4.43918 l 3.51314,-0.33814 0.19103,-1.98438 v -5.55625 -21.16666 -5.55625 l -0.8599,-2.78554 -3.63802,-0.65405 h -7.408334 m -11.377082,15.08124 v 14.81667 l -0.1397,5.82083 1.991783,5.82084 2.852003,0.0205 c 4.837373,-41.0642 -0.758927,-5.34025 -0.735336,-10.6038 v -10.84787 c 0,-1.30255 0.123825,-2.67335 -0.0074,-3.96875 -0.04339,-0.42942 0.25666,-1.14744 -0.624751,-1.12615 0.06488,-0.10642 -0.863517,-0.16139 -1.016015,0.70436 -0.152499,0.86574 -0.318075,1.78939 -0.226915,4.77732 0.09116,2.98792 0.231072,9.31119 0.181496,10.8431 -0.04958,1.53191 0.281655,2.70158 -0.952235,4.38053 L 89.63868,207.38571 V 197.3315 192.569 h -1.058333 m 23.283323,27.52367 c 2.3913,-0.0775 5.15223,0.66199 5.55625,-2.65324 h -13.75834"
           id="path1136"
           clip-path="url(#clipPath1142)" /><path
           style="fill:#572412;stroke:none;stroke-width:0.264583"
           d="m 108.68867,180.39814 v 30.69167 c -12.181791,-0.599 -13.525488,4.1659 -0.52917,4.43918 l 3.51314,-0.33814 0.19103,-1.98438 v -5.55625 -21.16666 -5.55625 l -0.8599,-2.78554 -3.63802,-0.65405 h -7.408334 m -11.377082,15.08124 v 14.81667 l -0.1397,5.82083 1.991783,5.82084 2.852003,0.0205 c 4.837373,-41.0642 -0.758927,-5.34025 -0.735336,-10.6038 v -10.84787 c 0,-1.30255 0.123825,-2.67335 -0.0074,-3.96875 -0.04339,-0.42942 0.25666,-1.14744 -0.624751,-1.12615 0.06488,-0.10642 -0.863517,-0.16139 -1.016015,0.70436 -0.152499,0.86574 -0.318075,1.78939 -0.226915,4.77732 0.09116,2.98792 0.231072,9.31119 0.181496,10.8431 -0.04958,1.53191 0.281655,2.70158 -0.952235,4.38053 L 89.63868,207.38571 V 197.3315 192.569 h -1.058333 m 23.283323,27.52367 c 2.3913,-0.0775 5.15223,0.66199 5.55625,-2.65324 h -13.75834"
           id="path1283"
           clip-path="url(#clipPath1142)"
           transform="matrix(-1,0,0,1,183.80133,0)" /></g></g></g></svg>
